<?xml version="1.0" encoding="UTF-8" standalone="no"?>
<!-- Created with Inkscape (http://www.inkscape.org/) -->

<svg
   xmlns:dc="http://purl.org/dc/elements/1.1/"
   xmlns:cc="http://creativecommons.org/ns#"
   xmlns:rdf="http://www.w3.org/1999/02/22-rdf-syntax-ns#"
   xmlns:svg="http://www.w3.org/2000/svg"
   xmlns="http://www.w3.org/2000/svg"
   xmlns:sodipodi="http://sodipodi.sourceforge.net/DTD/sodipodi-0.dtd"
   xmlns:inkscape="http://www.inkscape.org/namespaces/inkscape"
   version="1.1"
   width="24"
   height="24"
   id="svg2"
   inkscape:version="0.48.5 r10040"
   sodipodi:docname="f_orange.svg">
  <sodipodi:namedview
     pagecolor="#ffffff"
     bordercolor="#666666"
     borderopacity="1"
     objecttolerance="10"
     gridtolerance="10"
     guidetolerance="10"
     inkscape:pageopacity="0"
     inkscape:pageshadow="2"
     inkscape:window-width="1920"
     inkscape:window-height="1018"
     id="namedview7"
     showgrid="false"
     inkscape:zoom="7.375"
     inkscape:cx="-21.355932"
     inkscape:cy="16"
     inkscape:window-x="-8"
     inkscape:window-y="-8"
     inkscape:window-maximized="1"
     inkscape:current-layer="svg2" />
  <defs
     id="defs4" />
  <metadata
     id="metadata7">
    <rdf:RDF>
      <cc:Work
         rdf:about="">
        <dc:format>image/svg+xml</dc:format>
        <dc:type
           rdf:resource="http://purl.org/dc/dcmitype/StillImage" />
        <dc:title />
      </cc:Work>
    </rdf:RDF>
  </metadata>
  <g
     transform="matrix(0.71397454,0,0,0.71397454,0.57640684,-727.93609)"
     id="layer1"
     style="fill:#ff642b;fill-opacity:1">
    <path
       d="m 11.506144,1051.9205 c -1.194478,-0.3891 -2.4509034,-1.633 -2.8616346,-2.8329 -0.2846164,-0.8314 -0.3305536,-2.1293 -0.2142001,-6.0531 0.055692,-1.8777 -0.061309,-2.3572 -0.6730391,-2.758 -0.4059585,-0.2665 -0.6915872,-0.2284 -2.3715987,0.3142 -0.3367893,0.1079 -0.5576503,-0.1967 -0.4139458,-0.5696 0.1727882,-0.4503 2.6169356,-1.5949 4.0285178,-1.8866 1.1827915,-0.2443 1.5771825,-0.06 2.0878805,0.9689 0.490172,0.9885 0.574681,2.6671 0.230511,4.5784 -0.341483,1.8967 -0.258119,3.7576 0.208774,4.6604 0.427137,0.8254 1.244017,1.5781 2.048578,1.8875 2.020152,0.7762 4.884284,-1.117 5.580488,-3.689 0.608903,-2.2496 0.108116,-3.6338 -2.946127,-8.1428 -2.468472,-3.6442 -3.042166,-4.76 -3.042166,-5.9151 0,-1.6301 1.344491,-3.4881 3.930957,-5.4321 0.768575,-0.5779 1.363125,-1.1059 1.321215,-1.1738 -0.139944,-0.2253 -2.498723,-1.4321 -3.920872,-2.0043 -1.684943,-0.6778 -3.210702,-0.7911 -4.17776,-0.311 -1.2794254,0.636 -2.2214364,1.9802 -2.7668503,3.9483 -0.3363165,1.2138 -0.3545124,1.2443 -0.6670098,1.1246 -0.2918517,-0.111 -0.2843308,-0.3322 0.065276,-1.9135 0.5676685,-2.5672 1.8545862,-4.3735 3.7536441,-5.2684 2.63602,-1.2423 4.542944,-0.9672 8.822063,1.2732 1.17968,0.6175 2.401551,1.2563 2.715277,1.4197 0.779091,0.4053 1.849716,0.4928 2.419628,0.1968 0.24771,-0.127 0.817229,-0.5681 1.265599,-0.9781 0.875069,-0.7996 1.143537,-0.9085 1.143537,-0.4636 0,0.5665 -2.413531,3.4428 -3.54977,4.2301 -0.741792,0.5141 -1.711202,0.5433 -2.752246,0.082 -0.849826,-0.3761 -1.142515,-0.3767 -1.963397,0 -1.048592,0.4757 -2.064486,1.3061 -2.493299,2.0376 -0.60195,1.0272 -0.563385,1.9992 0.137564,3.4672 0.625652,1.3102 1.390308,2.4783 1.622177,2.4783 0.08692,0 1.086531,-0.8983 2.221386,-1.9969 1.134848,-1.0983 2.154409,-1.9967 2.265692,-1.9967 0.398964,0 1.849277,2.0922 1.849277,2.6675 0,0.2221 -1.257168,2.0659 -1.409447,2.0659 -0.04113,0 -0.361766,-0.2983 -0.712556,-0.6655 -0.501317,-0.5233 -0.74133,-0.6658 -1.121555,-0.6658 -0.626626,0 -1.257758,0.3079 -2.06939,1.0076 l -0.653396,0.5639 1.059098,1.4699 c 0.582497,0.8085 1.458973,2.2546 1.947714,3.213 0.805903,1.5806 0.888616,1.8291 0.888616,2.6684 0,2.0449 -0.710138,3.6297 -2.371408,5.2919 -1.936315,1.9373 -4.332044,3.0584 -6.784747,3.1746 -0.699806,0.032 -1.454492,0 -1.677076,-0.073 z"
       id="path3036"
       style="fill:#ff642b;fill-opacity:1"
       inkscape:connector-curvature="0" />
  </g>
</svg>
