<?xml version="1.0" encoding="UTF-8" standalone="no"?>
<svg
   xmlns:dc="http://purl.org/dc/elements/1.1/"
   xmlns:cc="http://creativecommons.org/ns#"
   xmlns:rdf="http://www.w3.org/1999/02/22-rdf-syntax-ns#"
   xmlns:svg="http://www.w3.org/2000/svg"
   xmlns="http://www.w3.org/2000/svg"
   xmlns:xlink="http://www.w3.org/1999/xlink"
   version="1.1"
   id="svg2"
   viewBox="0 0 283.46457 283.46457"
   height="80mm"
   width="80mm">
  <defs
     id="defs4">
    <clipPath
       id="clipPath4163"
       clipPathUnits="userSpaceOnUse">
      <rect
         y="500.2709"
         x="-94.259491"
         height="171.20602"
         width="111.57246"
         id="rect4165"
         style="fill:#000000;fill-opacity:1" />
    </clipPath>
    <clipPath
       id="clipPath4252"
       clipPathUnits="userSpaceOnUse">
      <g
         id="g4254">
        <ellipse
           style="fill:#dc8336;fill-opacity:1;stroke:none;stroke-width:1;stroke-linecap:round;stroke-linejoin:round;stroke-miterlimit:4;stroke-dasharray:none;stroke-opacity:1"
           id="ellipse4256"
           cx="177.56436"
           cy="866.80322"
           rx="20.617662"
           ry="21.038431" />
        <rect
           style="fill:#dc8336;fill-opacity:1;stroke:none;stroke-width:1;stroke-linecap:round;stroke-linejoin:round;stroke-miterlimit:4;stroke-dasharray:none;stroke-opacity:1"
           id="rect4258"
           width="2.9453804"
           height="42.497631"
           x="176.72282"
           y="887.84167" />
      </g>
    </clipPath>
    <clipPath
       id="clipPath4299"
       clipPathUnits="userSpaceOnUse">
      <ellipse
         ry="60.731201"
         rx="47.702362"
         cy="878.15405"
         cx="95.614868"
         id="ellipse4301"
         style="fill:#dc8336;fill-opacity:1;stroke:none;stroke-width:1;stroke-linecap:round;stroke-linejoin:round;stroke-miterlimit:4;stroke-dasharray:none;stroke-opacity:1" />
    </clipPath>
    <clipPath
       id="clipPath4380"
       clipPathUnits="userSpaceOnUse">
      <g
         transform="matrix(0.04128321,0.99914749,-0.99914749,0.04128321,0,0)"
         id="g4382">
        <ellipse
           style="fill:#dd8336;fill-opacity:1;stroke:none;stroke-width:0.5;stroke-linecap:round;stroke-linejoin:round;stroke-miterlimit:4;stroke-dasharray:none;stroke-opacity:1"
           id="ellipse4384"
           cx="-311.63263"
           cy="823.40979"
           rx="9.3005133"
           ry="58.681812"
           transform="matrix(0.85516431,-0.51835702,0.51835702,0.85516431,0,0)" />
        <ellipse
           style="fill:#dd8336;fill-opacity:1;stroke:none;stroke-width:0.5;stroke-linecap:round;stroke-linejoin:round;stroke-miterlimit:4;stroke-dasharray:none;stroke-opacity:1"
           id="ellipse4386"
           cx="-311.09583"
           cy="864.38959"
           rx="9.3005133"
           ry="58.681812"
           transform="matrix(0.85516431,-0.51835702,0.51835702,0.85516431,0,0)" />
      </g>
    </clipPath>
    <path
       id="path5416"
       d="m 63.353666,835.59535 c 0,0 27.820224,-32.28069 79.061034,-32.49715 51.24079,-0.21647 77.59691,32.49715 77.59691,32.49715"
       style="fill:none;fill-rule:evenodd;stroke:#000000;stroke-width:9.36200047;stroke-linecap:butt;stroke-linejoin:miter;stroke-miterlimit:4;stroke-dasharray:none;stroke-opacity:1" />
    <path
       id="path5499"
       d="m 42.341514,989.9183 c 0,0 42.501884,44.8863 99.390776,44.8863 56.8889,0 99.39076,-44.8863 99.39076,-44.8863"
       style="fill:none;fill-rule:evenodd;stroke:#000000;stroke-width:11.69322968;stroke-linecap:butt;stroke-linejoin:miter;stroke-miterlimit:4;stroke-dasharray:none;stroke-opacity:1" />
  </defs>
  <metadata
     id="metadata7">
    <rdf:RDF>
      <cc:Work
         rdf:about="">
        <dc:format>image/svg+xml</dc:format>
        <dc:type
           rdf:resource="http://purl.org/dc/dcmitype/StillImage" />
        <dc:title></dc:title>
      </cc:Work>
    </rdf:RDF>
  </metadata>
  <g
     transform="translate(0,-768.89764)"
     id="layer1">
    <circle
       r="141.73228"
       cy="910.62994"
       cx="141.73228"
       id="path3344"
       style="fill:#ff642b;fill-opacity:1;stroke:none;stroke-opacity:1;stroke-width:1;stroke-miterlimit:4;stroke-dasharray:none" />
    <circle
       r="135.23228"
       cy="910.62994"
       cx="141.73228"
       id="path3344-9"
       style="fill:#000000;fill-opacity:1;stroke:none;stroke-width:1;stroke-miterlimit:4;stroke-dasharray:none;stroke-opacity:1" />
    <flowRoot
       transform="translate(0,768.89764)"
       style="font-style:normal;font-weight:normal;font-size:40px;line-height:125%;font-family:sans-serif;letter-spacing:0px;word-spacing:0px;fill:#000000;fill-opacity:1;stroke:none;stroke-width:1px;stroke-linecap:butt;stroke-linejoin:miter;stroke-opacity:1"
       id="flowRoot4219"
       xml:space="preserve"><flowRegion
         id="flowRegion4221"><rect
           y="194.18611"
           x="106.47553"
           height="40.980274"
           width="128.42924"
           id="rect4223" /></flowRegion><flowPara
         id="flowPara4225">AAA</flowPara></flowRoot>    <text
       id="text4271"
       y="1023.7499"
       x="113.60753"
       style="font-style:normal;font-weight:normal;font-size:40px;line-height:125%;font-family:sans-serif;letter-spacing:0px;word-spacing:0px;fill:#000000;fill-opacity:1;stroke:none;stroke-width:1px;stroke-linecap:butt;stroke-linejoin:miter;stroke-opacity:1"
       xml:space="preserve"><tspan
         y="1023.7499"
         x="113.60753"
         id="tspan4273" /></text>
    <text
       id="text4275"
       y="1009.8646"
       x="149.37286"
       style="font-style:normal;font-weight:normal;font-size:40px;line-height:125%;font-family:sans-serif;letter-spacing:0px;word-spacing:0px;fill:#000000;fill-opacity:1;stroke:none;stroke-width:1px;stroke-linecap:butt;stroke-linejoin:miter;stroke-opacity:1"
       xml:space="preserve"><tspan
         y="1009.8646"
         x="149.37286"
         id="tspan4277" /></text>
    <g
       transform="matrix(0.92952597,0,0,0.92952597,7.567512,98.176884)"
       id="g4330">
      <g
         id="g4325">
        <path
           id="path4323"
           d="m 140.59179,868.13242 c -8.41933,1.33759 -11.91609,12.23236 -18.43245,17.72884 -4.0555,3.42077 -7.98661,7.23666 -12.80966,9.44729 -6.53663,2.99605 -19.169549,3.18187 -21.032297,4.79353 -2.46814,2.13544 3.245961,9.49813 6.152732,13.49841 5.693865,7.83585 12.852505,15.12145 21.425235,19.63019 8.93993,4.70185 19.44244,7.37047 29.52785,6.80986 9.50798,-0.52851 19.70188,-3.29438 26.95427,-9.4656 2.4411,-2.07719 3.97765,-5.3009 4.59704,-8.44576 1.33306,-6.76823 -0.0554,-14.03499 -2.26201,-20.57083 -2.96888,-8.79368 -7.50152,-17.59984 -14.35564,-23.85797 -5.4055,-4.93547 -12.53602,-10.71645 -19.76507,-9.56796 z"
           style="fill:#ff642b;fill-opacity:1;fill-rule:evenodd;stroke:none;stroke-width:0.5;stroke-linecap:round;stroke-linejoin:round;stroke-miterlimit:4;stroke-dasharray:none;stroke-opacity:1" />
        <path
           id="path4323-8"
           d="m 139.31337,855.85801 c 3.05129,-7.96015 -4.63548,-16.43581 -6.13737,-24.82739 -0.93474,-5.22254 -2.27385,-10.53494 -1.77678,-15.81713 0.67365,-7.1589 6.8292,-18.19227 6.36481,-20.61126 -0.61525,-3.20519 -9.84859,-1.93799 -14.76632,-1.4208 -9.63295,1.01313 -19.52181,3.56989 -27.712847,8.73971 -8.541898,5.39129 -16.104233,13.15244 -20.66145,22.16695 -4.296291,8.49839 -6.99792,18.7095 -5.279688,28.07587 0.578342,3.15265 2.601894,6.09519 5.015725,8.20405 5.194939,4.53858 12.182367,6.96951 18.945854,8.32645 9.099996,1.82571 18.992706,2.3034 27.839446,-0.50337 6.97698,-2.21356 15.54873,-5.4983 18.16862,-12.33308 z"
           style="fill:#ff642b;fill-opacity:1;fill-rule:evenodd;stroke:none;stroke-width:0.5;stroke-linecap:round;stroke-linejoin:round;stroke-miterlimit:4;stroke-dasharray:none;stroke-opacity:1" />
        <path
           id="path4323-7"
           d="m 151.09322,861.36692 c 5.36805,6.62254 16.55158,4.20347 24.56986,7.09855 4.99021,1.80179 10.26043,3.29827 14.58642,6.36984 5.86297,4.16287 12.34035,15.01038 14.66747,15.81774 3.0834,1.06977 6.60264,-7.56015 8.6136,-12.07761 3.9391,-8.84897 6.66929,-18.69133 6.28761,-28.3699 -0.39804,-10.09313 -3.3382,-20.52288 -8.86641,-28.9768 -5.21168,-7.96991 -12.70395,-15.41513 -21.67458,-18.61028 -3.01945,-1.07547 -6.57954,-0.7943 -9.61276,0.24172 -6.528,2.22964 -12.12696,7.06547 -16.68387,12.24437 -6.1311,6.96796 -11.49114,15.29645 -13.48377,24.36134 -1.5715,7.14903 -3.01271,16.21474 1.59643,21.90103 z"
           style="fill:#ff642b;fill-opacity:1;fill-rule:evenodd;stroke:none;stroke-width:0.5;stroke-linecap:round;stroke-linejoin:round;stroke-miterlimit:4;stroke-dasharray:none;stroke-opacity:1" />
      </g>
      <g
         id="g4295">
        <rect
           transform="matrix(0.73071012,-0.68268786,0.68268786,0.73071012,0,0)"
           y="746.10138"
           x="-490.18137"
           height="63.899654"
           width="8.9831114"
           id="rect4404"
           style="fill:#d9ac76;fill-opacity:1;stroke:#000000;stroke-width:1.47956991;stroke-linecap:round;stroke-linejoin:round;stroke-miterlimit:4;stroke-dasharray:none;stroke-opacity:1" />
        <path
           id="path4545"
           d="m 167.70574,869.30458 c -0.49336,-2.31158 -1.32054,-4.55898 -2.39659,-6.51124 -0.69486,-1.26068 -1.1079,-1.77222 -2.65333,-3.28609 -1.00673,-0.98609 -2.23581,-2.04104 -2.73135,-2.34427 -0.77824,-0.47616 -0.98474,-0.70203 -1.51553,-1.65764 -0.91509,-1.64744 -3.74771,-4.63107 -5.41433,-5.70304 -1.85996,-1.19627 -3.7955,-2.04315 -5.7021,-2.49494 -2.28264,-0.54084 -5.70036,-0.50908 -7.743,0.072 -0.91577,0.26057 -1.7124,0.42356 -1.77024,0.36236 -0.0579,-0.0611 0.7952,-1.18971 1.90642,-2.22789 3.21787,-3.0064 5.32767,-3.89763 8.76677,-4.44066 4.11774,-0.6502 5.1748,-0.40966 8.95741,2.03843 1.67608,1.08478 3.60312,0.38775 5.77521,2.70092 2.65926,2.83187 4.13547,4.55625 5.45613,7.37473 1.61541,3.44754 1.98029,9.70824 1.94438,13.62244 -0.0191,2.07954 -1.50298,8.28166 -2.40995,4.2952 -0.0393,0.0367 -0.2507,-0.77343 -0.46987,-1.8003 z"
           style="fill:#ff0000;fill-opacity:1;stroke:none;stroke-width:0.2041724;stroke-linecap:round;stroke-linejoin:round;stroke-miterlimit:4;stroke-dasharray:none;stroke-opacity:1" />
        <path
           id="path4547"
           d="m 127.46229,862.5551 c -2.88227,-4.38705 -3.72526,-8.30395 -2.8329,-13.16293 l 0.32135,-1.74982 2.70942,-2.93754 c 2.24364,-2.43253 3.59363,-5.49478 5.23387,-6.36666 3.41799,-1.81681 9.59069,-1.24123 13.45419,-1.24204 1.90459,-4e-4 5.12769,1.81891 5.11696,2.06612 -0.003,0.0557 -0.8515,0.27098 -1.88692,0.47867 -3.35161,0.6723 -8.56178,2.96719 -11.42155,5.96402 -0.85418,0.89512 -1.62155,2.21988 -1.87388,2.60774 -0.25889,0.39793 -0.5772,2.12749 -1.67452,3.0624 -3.74651,3.19199 -1.48067,6.36421 -4.48484,9.55867 l -2.23251,2.37391 z"
           style="fill:#ffffff;fill-opacity:1;stroke:none;stroke-width:0.2041724;stroke-linecap:round;stroke-linejoin:round;stroke-miterlimit:4;stroke-dasharray:none;stroke-opacity:1" />
        <path
           id="path4549"
           d="m 161.57044,841.6309 c -1.64585,-0.71242 -4.92273,-1.5956 -6.71213,-1.80906 -0.73119,-0.0872 -1.95958,-0.38712 -2.72979,-0.66646 -4.87588,-1.76839 -10.39886,-1.9847 -15.27124,-0.59812 -3.67867,1.04689 -6.31967,2.42973 -9.27163,4.85468 l -1.65991,1.36357 0.67788,-1.36793 c 0.97517,-1.96796 2.43724,-4.14243 3.91728,-5.82607 l 1.28681,-1.46383 1.96626,-0.61944 c 3.24396,-1.02193 6.16557,-1.38878 9.98387,-1.25385 6.0103,0.21243 11.4472,2.00105 16.06879,5.28629 1.38015,0.98107 3.24327,2.53488 3.14717,2.62468 -0.0333,0.0311 -0.6649,-0.20486 -1.40338,-0.52452 z"
           style="fill:#ffffff;fill-opacity:1;stroke:none;stroke-width:0.2041724;stroke-linecap:round;stroke-linejoin:round;stroke-miterlimit:4;stroke-dasharray:none;stroke-opacity:1" />
        <path
           id="path4551"
           d="m 132.79735,883.44473 c -0.37248,0.0457 -1.39339,-0.0277 -2.26866,-0.16285 -3.38126,-0.52226 -6.08691,-1.57525 -9.22636,-3.59071 -1.68991,-1.0849 -2.1054,-1.45564 -4.51264,-4.02671 l -2.65122,-2.83193 -0.37016,-1.54829 c -1.76142,-7.36752 -0.77924,-15.12545 2.73805,-21.62679 2.49057,-4.60363 6.69388,-8.91205 11.20946,-11.48979 l 2.14773,-1.01395 -1.32973,1.57226 c -1.46449,1.7316 -3.10031,4.35728 -3.92929,6.57907 -0.41664,1.11669 -1.01626,2.35905 -1.33246,2.76081 -0.88902,1.12953 -2.64814,4.49344 -3.24749,6.21005 -3.90157,11.17454 1.26556,23.37098 11.97185,28.25831 0.81589,0.37246 1.48229,0.711 1.48088,0.75232 -10e-4,0.0414 -0.3071,0.11304 -0.67982,0.15806 z"
           style="fill:#ff0000;fill-opacity:1;stroke:#ff0000;stroke-width:0.2041724;stroke-linecap:round;stroke-linejoin:round;stroke-miterlimit:4;stroke-dasharray:none;stroke-opacity:1" />
        <path
           id="path4553"
           d="m 142.97212,879.80457 c -1.21603,0.82476 -3.82874,2.10817 -5.39661,2.65088 -0.96659,0.33503 -1.31927,0.32539 -2.68398,-0.0703 -1.86755,-0.54151 -3.74696,-1.44028 -5.81907,-2.78281 -2.00108,-1.29649 -6.88294,-3.61132 -8.14388,-5.72939 -3.78277,-6.35429 -3.24765,-17.23332 0.17331,-23.93168 0.44367,-0.86871 1.91458,0.34866 1.94416,0.3212 0.0297,-0.0275 0.0214,0.89144 -0.018,2.04204 -0.0864,2.51712 0.25853,4.59396 1.11313,6.70009 0.72149,1.77823 2.53792,4.81885 3.4725,5.81276 0.34448,0.36635 0.7738,1.08731 0.95405,1.60214 0.87359,2.49512 3.41205,5.21219 5.60478,6.58643 3.83126,2.40118 8.5738,2.84804 12.01734,0.7741 1.58859,-0.95676 1.56241,-0.95422 1.47516,-0.14277 -0.19071,1.77379 -2.29778,4.54287 -4.69289,6.16734 z"
           style="fill:#ff0000;fill-opacity:1;stroke:none;stroke-width:0.20483503;stroke-linecap:round;stroke-linejoin:round;stroke-miterlimit:4;stroke-dasharray:none;stroke-opacity:1" />
        <path
           id="path4555"
           d="m 151.04911,889.7836 c -2.23857,1.45439 -4.9105,3.37422 -7.1292,3.75026 -5.9949,1.01608 -10.8214,-0.59107 -16.70456,-3.36964 -4.12286,-1.94718 -8.64914,-7.74709 -11.02076,-12.54869 l -0.56591,-1.14577 1.36422,1.24016 c 5.65118,5.13719 12.34137,7.6032 17.91611,6.60387 0.85683,-0.15364 2.22514,-0.17039 3.17331,-0.039 4.26577,0.59133 8.92606,-1.35039 12.88339,-3.55507 1.20756,-0.67278 1.3366,-0.6121 2.95393,-2.1179 2.26933,-2.11343 4.09404,-3.43106 5.24152,-5.91078 0.31723,-0.68551 0.6143,-1.2451 0.66019,-1.24354 0.0459,10e-4 0.11702,0.94146 0.15806,2.08867 0.19745,5.52309 -1.33978,9.2138 -5.57515,13.38483 -1.29716,1.27752 -2.51607,2.31739 -3.35512,2.86255 z"
           style="fill:#ff0000;fill-opacity:1;stroke:none;stroke-width:0.2041724;stroke-linecap:round;stroke-linejoin:round;stroke-miterlimit:4;stroke-dasharray:none;stroke-opacity:1" />
        <path
           id="path4557"
           d="m 151.43314,880.75329 c -1.17211,0.75199 -2.37009,1.34 -3.80406,1.87392 -2.08223,0.77526 -8.04867,1.01324 -8.03131,0.50253 0.004,-0.10863 0.42935,-0.39304 0.94533,-0.63273 1.77405,-0.82277 3.54795,-2.02299 4.98695,-3.37425 2.27327,-2.13467 2.74324,-3.63503 2.95222,-6.02972 0.0954,-1.09341 0.61824,-1.53471 1.31822,-2.52814 1.59697,-2.26655 1.1444,-5.58655 0.68632,-8.13803 l -0.25011,-1.3927 0.96042,-0.0298 c 1.20007,-0.037 4.03078,1.26521 5.04325,2.12814 0.93828,0.7997 2.12743,2.72038 2.69428,4.35179 0.36796,1.05793 1.55504,1.89113 1.14985,3.15841 -0.51128,1.59906 -0.32388,3.33085 -1.45193,5.17903 -0.87315,1.43051 -5.38009,3.59696 -6.7327,4.46471 z"
           style="fill:#ff0000;fill-opacity:1;stroke:none;stroke-width:0.2041724;stroke-linecap:round;stroke-linejoin:round;stroke-miterlimit:4;stroke-dasharray:none;stroke-opacity:1" />
        <path
           id="path4559"
           d="m 138.88187,868.51237 c -2.42459,1.05098 -4.98468,0.40439 -7.9145,-1.99896 l -1.42678,-1.17039 -0.5409,-1.29027 c -0.68849,-1.64237 -0.15131,-4.65874 0.47646,-6.45743 0.65933,-1.88926 2.25196,-4.01695 3.4827,-5.16744 l 1.27492,-1.1918 -0.18593,1.35416 c -0.2333,1.69913 -0.67425,3.34271 -0.2643,4.68246 0.36872,1.205 0.50251,1.4082 1.76644,2.68208 1.29131,1.30152 1.37247,1.42813 1.45708,2.27234 0.1212,1.21005 2.82175,0.59977 3.62726,1.46194 0.83257,0.89113 -0.85185,2.55145 0.16136,2.60979 l 0.77474,0.0446 -1.04598,0.95516 c -0.57528,0.52532 -1.31444,1.07153 -1.64257,1.21378 z"
           style="fill:#ffffff;fill-opacity:1;stroke:none;stroke-width:0.2041724;stroke-linecap:round;stroke-linejoin:round;stroke-miterlimit:4;stroke-dasharray:none;stroke-opacity:1" />
        <path
           id="path4561"
           d="m 155.65461,854.90667 c -1.72728,-0.74391 -4.33804,-0.9461 -6.05157,-0.92731 -1.90165,0.0209 -3.62315,0.18732 -4.92735,1.17326 -0.75978,0.57436 -1.30678,0.81132 -2.20591,0.95557 -0.65757,0.10554 -1.07481,1.872 -1.457,2.0712 -0.9245,0.48194 -1.35168,1.77754 -1.75913,2.55275 -0.40186,0.76454 -2.23152,-0.65164 -3.06681,-1.53899 -1.89246,-2.0104 -2.12314,-4.83304 -0.65449,-8.00748 0.51621,-1.11576 2.38299,-3.97246 3.3119,-4.43913 5.87885,-2.9534 14.09772,1.45162 18.89609,6.67178 1.6687,1.81539 -0.65766,2.1034 -2.08571,1.48834 z"
           style="fill:#ff0000;fill-opacity:1;stroke:none;stroke-width:0.2041724;stroke-linecap:round;stroke-linejoin:round;stroke-miterlimit:4;stroke-dasharray:none;stroke-opacity:1" />
        <path
           id="path4563"
           d="m 145.51102,872.86004 c -3.23132,1.6953 -7.00837,4.06317 -10.36872,2.07867 -1.20541,-0.71188 -5.72145,-5.28146 -6.4249,-6.46687 l 1.74068,-0.82741 1.29123,0.51074 c 2.60343,1.0298 4.75235,2.35372 6.98401,1.60991 1.03298,-0.34418 1.43623,-0.6068 2.64444,-1.7215 1.33867,-1.23506 1.41547,-1.34414 1.25927,-1.78856 -0.0916,-0.26024 -0.0402,-0.59114 0.11405,-0.73523 0.21798,-0.20367 0.19056,-0.31799 -0.12319,-0.51361 -0.22199,-0.13839 -0.45153,-0.30114 -0.51015,-0.36164 -0.059,-0.0601 -0.26398,0.0372 -0.45645,0.21682 -0.457,0.42694 0.48918,-0.95295 -0.33818,-1.50959 -1.07356,-0.72225 -3.45667,-1.19598 -2.80669,-1.63141 0.14931,-0.10009 0.19819,-0.39278 0.10861,-0.65054 -0.4306,-1.23602 1.85285,-3.53425 3.73558,-3.76073 0.44787,-0.0538 0.44925,0.0172 0.0212,1.06944 -0.61127,1.50264 -0.71094,2.35277 -0.29933,2.5531 0.44659,0.21736 0.74621,-0.11704 1.02156,-1.14003 0.40248,-1.49531 1.01453,-2.62367 1.37816,-2.54068 1.74375,0.39801 2.52149,0.84399 3.76293,2.15786 l 1.26205,1.33564 -0.58069,0.4647 c -0.40273,0.32228 -0.54241,0.55919 -0.45576,0.77299 0.12466,0.30758 0.34461,0.34386 1.2648,0.20863 0.47373,-0.0696 0.49227,-0.0347 0.6927,1.30683 0.3138,2.10027 -0.13321,4.13028 -1.32875,6.03434 l -0.54378,0.86602 -0.2662,-0.5012 c -1.03434,-1.94782 -1.89927,-2.97168 -2.35452,-2.7872 -0.49923,0.20229 -0.39627,0.69426 0.36164,1.72853 0.38566,0.52619 0.83045,1.3075 0.98845,1.73617 0.26282,0.71291 0.23786,0.82346 -0.29226,1.29588 -0.31874,0.28405 -0.98558,0.7295 -1.48187,0.98987 z"
           style="fill:#ff0000;fill-opacity:1;stroke:none;stroke-width:0.2041724;stroke-linecap:round;stroke-linejoin:round;stroke-miterlimit:4;stroke-dasharray:none;stroke-opacity:1" />
        <path
           id="path4565"
           d="m 160.77206,867.61537 c -0.0341,-0.0378 -0.28336,0.0851 -0.53751,-0.43186 -0.57741,-1.17457 -3.37689,-5.13115 -4.47726,-5.77142 -1.08123,-0.62923 -2.859,-1.01472 -4.02805,-0.87347 -0.81351,0.0983 -2.48088,0.91384 -2.7629,0.44007 -0.88784,-1.4912 -1.51261,-2.9382 -3.11997,-3.56031 -1.05982,-0.41021 -0.58686,-1.2276 -0.16679,-1.62006 0.67558,-0.63117 2.96959,-1.11977 4.67589,-0.99591 2.52257,0.18312 6.97084,1.55156 7.91981,2.56728 0.42926,0.45947 3.05724,3.85233 3.11506,5.71693 0.18524,1.21961 -0.32026,5.08253 -0.49656,4.88453 z"
           style="fill:#ffffff;fill-opacity:1;stroke:none;stroke-width:0.2041336;stroke-linecap:round;stroke-linejoin:round;stroke-miterlimit:4;stroke-dasharray:none;stroke-opacity:1" />
        <path
           id="path4577"
           d="m 156.82998,889.63258 c -0.98398,0.66854 -3.72354,1.72012 -3.44121,-0.0605 -0.0118,-0.0123 0.7257,-0.73752 1.63793,-1.61139 2.89537,-2.77364 4.91117,-5.99608 5.59975,-8.95165 0.50259,-2.1572 0.60091,-6.17517 0.21025,-8.59182 -0.17585,-1.08786 -0.20083,-2.46355 -0.062,-3.41792 0.29172,-2.00575 -0.4852,-5.5509 -1.03944,-7.67897 -0.48712,-1.87044 0.20899,-0.90048 1.99877,0.72114 2.44162,2.21226 4.29153,6.03614 5.03967,10.41722 0.46474,2.72171 0.30983,4.26426 -0.61878,6.16064 -1.47774,3.01782 -0.65416,6.1316 -3.34902,8.76616 -1.32522,1.29562 -5.08693,3.10508 -5.65081,3.48849 z"
           style="fill:#ffffff;fill-opacity:1;stroke:none;stroke-width:0.2041724;stroke-linecap:round;stroke-linejoin:round;stroke-miterlimit:4;stroke-dasharray:none;stroke-opacity:1" />
        <path
           id="path4579"
           d="m 167.84802,879.0297 c 0.0794,-0.49075 0.19506,-1.57816 0.2571,-2.41645 0.0621,-0.83829 0.38135,-2.38068 0.70956,-3.42755 2.70741,-8.63579 1.25252,-17.50948 -4.04949,-24.69861 -1.4965,-2.02913 -3.90607,-4.37389 -6.02817,-5.86601 -0.84469,-0.59395 -1.53714,-1.1167 -1.53875,-1.1617 -0.0112,-0.3115 4.50356,1.3696 6.48007,2.41285 1.82671,0.96419 3.01779,2.15977 4.39729,4.41389 5.45038,8.90602 5.84176,20.26556 1.01575,29.48136 -1.11083,2.12126 -1.43556,2.45091 -1.24336,1.2622 z"
           style="fill:#ff0000;fill-opacity:1;stroke:none;stroke-width:0.2041724;stroke-linecap:round;stroke-linejoin:round;stroke-miterlimit:4;stroke-dasharray:none;stroke-opacity:1" />
        <path
           transform="matrix(-0.42592269,-0.88908955,0.86853301,-0.4216416,-521.99025,1348.8375)"
           d="m 150.44032,837.22083 c 4.71922,-10.36448 16.2994,1.24793 17.22644,7.84364 1.18739,8.44802 -3.68592,16.60006 -10.44005,21.33099"
           id="path4406-7"
           style="fill:none;fill-rule:evenodd;stroke:#ffffff;stroke-width:4.14529181;stroke-linecap:round;stroke-linejoin:round;stroke-miterlimit:4;stroke-dasharray:none;stroke-opacity:1" />
        <path
           id="path4581"
           d="m 160.3282,888.02799 c -4.09137,2.75369 -7.99172,4.4387 -12.02361,5.19436 -1.73572,0.32535 -0.25954,-1.79138 2.02834,-2.53881 6.85391,-2.239 11.44064,-4.72766 15.15656,-10.51315 0.60183,-0.93703 1.14843,-1.70185 1.21467,-1.6996 0.25244,0.009 -0.85964,4.09058 -1.28836,4.72902 -0.43827,0.65265 -4.22976,4.2508 -5.08762,4.82815 z"
           style="fill:#ffffff;fill-opacity:1;stroke:none;stroke-width:0.2041724;stroke-linecap:round;stroke-linejoin:round;stroke-miterlimit:4;stroke-dasharray:none;stroke-opacity:1" />
        <path
           transform="matrix(0.72349158,-0.66469403,0.66681203,0.70167652,-534.0006,357.55015)"
           d="m 144.51347,857.74524 c 4.71922,-10.36448 16.29941,1.24794 17.22645,7.84364 1.2129,8.62955 -3.8845,16.91633 -10.85698,21.61754"
           id="path4406"
           style="fill:none;fill-rule:evenodd;stroke:#ffffff;stroke-width:4.19900846;stroke-linecap:round;stroke-linejoin:round;stroke-miterlimit:4;stroke-dasharray:none;stroke-opacity:1" />
        <path
           transform="matrix(-0.9531725,0.25235235,-0.2412152,-0.9266747,469.06505,1590.2992)"
           d="m 133.87718,820.45068 c 4.71922,-10.36448 16.29941,1.24794 17.22645,7.84365 1.22624,8.72447 -3.98994,17.08052 -11.0764,21.76401"
           id="path4406-8"
           style="fill:none;fill-rule:evenodd;stroke:#ffffff;stroke-width:4.62164307;stroke-linecap:round;stroke-linejoin:round;stroke-miterlimit:4;stroke-dasharray:none;stroke-opacity:1" />
        <path
           transform="matrix(0.09648546,1.1475646,-0.97546974,0.10876585,950.99787,637.63177)"
           d="m 116.99865,838.70687 c 5.90508,-9.92559 16.58138,2.92968 17.05022,9.66442 0.29702,4.26669 -0.92463,8.54426 -3.11375,12.1897"
           id="path4406-5"
           style="fill:none;fill-rule:evenodd;stroke:#ffffff;stroke-width:9.60071754;stroke-linecap:round;stroke-linejoin:round;stroke-miterlimit:4;stroke-dasharray:none;stroke-opacity:1" />
        <path
           transform="matrix(0.9545581,0.24762063,-0.24762063,0.9545581,230.8868,14.191156)"
           d="m 133.4631,855.23328 c 4.71922,-10.36448 16.29941,1.24794 17.22645,7.84364 1.21222,8.62468 -3.87911,16.90787 -10.84574,21.60995"
           id="path4406-9"
           style="fill:none;fill-rule:evenodd;stroke:#ffffff;stroke-width:3.10005975;stroke-linecap:round;stroke-linejoin:round;stroke-miterlimit:4;stroke-dasharray:none;stroke-opacity:1" />
        <path
           id="path6025"
           d="m 132.20536,839.41005 3.03384,-4.31739 -4.31738,1.28355 z"
           style="fill:#ffffff;fill-opacity:1;fill-rule:evenodd;stroke:none;stroke-width:1px;stroke-linecap:butt;stroke-linejoin:miter;stroke-opacity:1" />
        <path
           id="path6025-7"
           d="m 162.86139,845.65375 c 2.38226,1.14206 6.94632,5.07519 6.94632,5.07519 l -4.13753,-7.35634 c 0,0 -5.19105,1.13909 -2.80879,2.28115 z"
           style="fill:#ffffff;fill-opacity:1;fill-rule:evenodd;stroke:none;stroke-width:1px;stroke-linecap:butt;stroke-linejoin:miter;stroke-opacity:1" />
        <path
           id="path6025-4"
           d="m 164.98278,879.77423 -0.75202,4.86661 3.23456,-3.13447 z"
           style="fill:#ffffff;fill-opacity:1;fill-rule:evenodd;stroke:none;stroke-width:1px;stroke-linecap:butt;stroke-linejoin:miter;stroke-opacity:1" />
        <path
           id="path6025-3"
           d="m 144.8897,891.86341 c -2.63526,1.08245 -7.1343,1.55326 -7.1343,1.55326 l 7.5486,1.31445 c 0,0 2.22096,-3.95016 -0.4143,-2.86771 z"
           style="fill:#ffffff;fill-opacity:1;fill-rule:evenodd;stroke:none;stroke-width:1px;stroke-linecap:butt;stroke-linejoin:miter;stroke-opacity:1" />
        <path
           id="path6025-0"
           d="m 126.72082,876.86517 c -7.31808,-3.91858 -14.13478,-14.92904 -14.13478,-14.92904 l 0.79729,10.27 5.93132,10.98139 c 0,0 14.72425,-2.40377 7.40617,-6.32235 z"
           style="fill:#ffffff;fill-opacity:1;fill-rule:evenodd;stroke:none;stroke-width:1px;stroke-linecap:butt;stroke-linejoin:miter;stroke-opacity:1" />
        <circle
           transform="matrix(0.73071012,-0.68268786,0.68268786,0.73071012,0,0)"
           r="30.421688"
           cy="728.70074"
           cx="-485.53668"
           id="path4400"
           style="fill:none;fill-opacity:1;stroke:#000000;stroke-width:1.47922909;stroke-linecap:round;stroke-linejoin:round;stroke-miterlimit:4;stroke-dasharray:none;stroke-opacity:1" />
        <ellipse
           transform="matrix(0.99874468,-0.05009048,0.02924195,0.99957236,0,0)"
           ry="5.3561797"
           rx="5.2407045"
           cx="120.52261"
           cy="868.43634"
           id="path4212"
           style="fill:#ffffff;fill-opacity:1;stroke:none;stroke-width:1.98300004;stroke-linecap:round;stroke-linejoin:round;stroke-miterlimit:4;stroke-dasharray:none;stroke-opacity:1" />
        <path
           id="path6060"
           d="m 150,861.34704 -3.26721,4.70473 2.62544,3.63832 1.92532,-4.70472 z"
           style="fill:#ffffff;fill-opacity:1;fill-rule:evenodd;stroke:none;stroke-width:1px;stroke-linecap:butt;stroke-linejoin:miter;stroke-opacity:1" />
      </g>
    </g>
    <text
       transform="matrix(1.1285218,0,0,1.1957709,-15.801348,-153.85558)"
       y="-102.54237"
       x="-0.42372882"
       id="text5418"
       style="font-style:normal;font-weight:normal;font-size:40px;line-height:125%;font-family:sans-serif;letter-spacing:0px;word-spacing:0px;fill:#000000;fill-opacity:1;stroke:none;stroke-width:1px;stroke-linecap:butt;stroke-linejoin:miter;stroke-opacity:1"
       xml:space="preserve"><textPath
         style="font-style:normal;font-variant:normal;font-weight:normal;font-stretch:normal;font-size:27.5px;font-family:'Euclid Fraktur';-inkscape-font-specification:'Euclid Fraktur';fill:#ffffff;fill-opacity:1"
         id="textPath5422"
         xlink:href="#path5416"> Fanclub 2015</textPath></text>
    <text
       transform="matrix(1.1061901,0,0,1.1670892,-15.719201,-177.75943)"
       id="text5495"
       style="font-style:normal;font-weight:normal;font-size:40px;line-height:125%;font-family:sans-serif;letter-spacing:0.86000001px;word-spacing:0px;fill:#000000;fill-opacity:1;stroke:none;stroke-width:1px;stroke-linecap:butt;stroke-linejoin:miter;stroke-opacity:1"
       xml:space="preserve"
       x="-42.327034"
       y="-976.22369"><textPath
         style="font-style:normal;font-variant:normal;font-weight:normal;font-stretch:normal;font-size:25px;font-family:Georgia;-inkscape-font-specification:Georgia;letter-spacing:0.86000001px;fill:#ffffff"
         id="textPath5501"
         xlink:href="#path5499">Teknisk Fysik <tspan
   id="tspan5622"
   style="letter-spacing:1.35000002px">KTH</tspan></textPath></text>
  </g>
</svg>
